# xmcd
#
# Track frame offsets: 
#        150
#        14176
#        23824
#        36965
#        48756
#        61428
#        73362
#        86355
#        96872
#        108673
#        120521
#        131774
#
# Disc length: 1909 seconds
#
# Revision: 0
# Processed by: cddbd v1.5.2PL0 Copyright (c) Steve Scherf et al.
# Submitted via: ExactAudioCopy v1.3
#
DISCID=a907730c
DTITLE=Wilma Bugess - Don't Touch Me
DYEAR=1966
DGENRE=Country
TTITLE0=Don't Touch Me
TTITLE1=Wait Till The Sun Comes Up
TTITLE2=Think I'll Go Somewhere And Cry Myself To Sleep
TTITLE3=I Love You Drops
TTITLE4=Welcome To My World
TTITLE5=I'm So Lonesome I Could Cry
TTITLE6=Baby
TTITLE7=Turn Around Teardrops
TTITLE8=Someone Before Me
TTITLE9=You Can't Stop My Heart From Breaking
TTITLE10=The Closest Thing To Love
TTITLE11=I'm Living In Two Worlds
EXTD=
EXTT0=
EXTT1=
EXTT2=
EXTT3=
EXTT4=
EXTT5=
EXTT6=
EXTT7=
EXTT8=
EXTT9=
EXTT10=
EXTT11=
PLAYORDER=
